<svg width="96" height="28" viewBox="0 0 96 28" fill="none" role="img" aria-labelledby="cruiseLogo" xmlns="http://www.w3.org/2000/svg"><title id="cruiseLogo">Cruise</title><path d="M46.8827 19.1962C46.8827 20.4596 46.3922 21.6712 45.5191 22.5645C44.646 23.4578 43.4617 23.9597 42.227 23.9597C40.9922 23.9597 39.808 23.4578 38.9348 22.5645C38.0617 21.6712 37.5712 20.4596 37.5712 19.1962V8.76465H33.7994V19.2048C33.7994 21.4894 34.6864 23.6804 36.2653 25.2958C37.8442 26.9112 39.9857 27.8188 42.2185 27.8188C44.4514 27.8188 46.5929 26.9112 48.1717 25.2958C49.7506 23.6804 50.6376 21.4894 50.6376 19.2048V8.76465H46.8659L46.8827 19.1962Z" fill="#ff4d37"></path><path d="M58.1637 8.76465H54.3667V27.6293H58.1637V8.76465Z" fill="#ff4d37"></path><path d="M9.54389 12.3311C10.4847 12.3334 11.4109 12.5699 12.2426 13.0201C13.0742 13.4703 13.7863 14.1207 14.3175 14.9153L17.34 12.6067C16.3971 11.2357 15.125 10.1364 13.6463 9.41453C12.1675 8.69269 10.532 8.37273 8.89726 8.48548C7.26254 8.59823 5.68377 9.1399 4.31309 10.0583C2.94241 10.9766 1.82604 12.2408 1.07156 13.7288C0.317076 15.2168 -0.0500764 16.8786 0.00548783 18.554C0.061052 20.2294 0.537459 21.8619 1.38879 23.2942C2.24013 24.7265 3.43768 25.9103 4.86606 26.7314C6.29443 27.5526 7.90546 27.9836 9.54389 27.9827C11.0659 27.9785 12.565 27.6028 13.9166 26.8866C15.2681 26.1705 16.4331 25.1346 17.3147 23.8652L14.3175 21.5394C13.7561 22.3783 12.9925 23.0545 12.1005 23.5025C11.2086 23.9505 10.2186 24.1552 9.22661 24.0966C8.23463 24.038 7.27426 23.7181 6.43863 23.1681C5.60299 22.618 4.92044 21.8564 4.45715 20.957C3.99386 20.0576 3.76554 19.051 3.79434 18.0348C3.82313 17.0186 4.10806 16.0272 4.6215 15.1568C5.13494 14.2864 5.85947 13.5665 6.72484 13.0669C7.59022 12.5673 8.56708 12.3049 9.56072 12.3052L9.54389 12.3311Z" fill="#ff4d37"></path><path d="M81.2747 16.3712C82.7059 11.6335 86.8144 11.9177 86.8144 11.9177C88.0902 11.8981 89.3332 12.3309 90.3323 13.1428C91.3315 13.9546 92.0251 15.0954 92.2953 16.3712H81.2747ZM86.7471 8.44629C84.2674 8.52169 81.9139 9.58254 80.186 11.4038C78.4581 13.225 77.4916 15.6634 77.4916 18.2016C77.4916 20.7398 78.4581 23.1782 80.186 24.9995C81.9139 26.8207 84.2674 27.8816 86.7471 27.957C88.3166 27.9623 89.8644 27.5812 91.2597 26.8458C92.6268 26.1811 93.8276 25.206 94.7705 23.9945L91.9753 21.9789C91.3962 22.7748 90.6411 23.4191 89.772 23.8593C88.9028 24.2994 87.9441 24.5229 86.9744 24.5114C85.5512 24.5427 84.1665 24.0368 83.0848 23.0901C82.0528 22.186 81.3521 20.9496 81.0979 19.5842H95.9828C96.4627 8.17926 86.7218 8.47213 86.7218 8.47213L86.7471 8.44629Z" fill="#ff4d37"></path><path d="M73.3189 18.1714C72.7408 17.7624 72.1194 17.4215 71.4667 17.1549C70.8026 16.8715 70.1222 16.6299 69.4293 16.4314C68.7557 16.2332 68.1411 16.0265 67.6023 15.8198C65.607 15.0617 65.7922 13.8902 65.7922 13.8902C65.7909 13.6359 65.8481 13.3848 65.9593 13.1574C66.0704 12.9299 66.2324 12.7324 66.432 12.5809C66.9876 12.184 67.6587 11.9926 68.3348 12.0382C69.8076 12.0482 71.2375 12.5469 72.4096 13.4595L74.3881 10.6514C73.1166 9.60081 71.6031 8.90115 69.9922 8.61915C68.3813 8.33716 66.7266 8.48225 65.186 9.04056C64.1974 9.4994 63.3624 10.2453 62.7846 11.1856C62.2069 12.1259 61.9119 13.2192 61.9362 14.3295C61.9163 15.1659 62.0985 15.9944 62.4667 16.7415C62.7951 17.3814 63.2758 17.9265 63.8642 18.3264C65.079 19.0568 66.3925 19.5995 67.7623 19.9372C68.4358 20.1181 69.0504 20.3077 69.606 20.4972C69.606 20.4972 71.4498 21.0485 71.4246 22.4611C71.4273 22.7493 71.3594 23.0335 71.2271 23.2878C71.0947 23.5422 70.9021 23.7584 70.6669 23.9169C70.6669 23.9169 67.8128 25.9412 63.5275 22.375L61.5911 25.0626C62.7949 26.3116 64.3025 27.2095 65.9585 27.6637C67.6145 28.118 69.359 28.1121 71.012 27.6468C72.2037 27.3655 73.2677 26.6809 74.0317 25.7038C74.7957 24.7267 75.215 23.5143 75.2216 22.263C75.27 21.4718 75.1208 20.681 74.7879 19.9652C74.455 19.2494 73.9495 18.632 73.3189 18.1714Z" fill="#ff4d37"></path><path d="M56.4131 5.3709C56.9318 5.3411 57.4302 5.15459 57.8453 4.83496C58.2604 4.51532 58.5736 4.07692 58.7452 3.5752C58.9167 3.07347 58.9391 2.53095 58.8093 2.01624C58.6795 1.50154 58.4035 1.03776 58.0161 0.683568C57.6287 0.329376 57.1473 0.100672 56.6329 0.02638C56.1185 -0.0479117 55.5941 0.0355466 55.126 0.266197C54.6579 0.496847 54.2672 0.86433 54.0033 1.32218C53.7393 1.78003 53.614 2.30767 53.6432 2.83839C53.6614 3.19114 53.7477 3.53671 53.897 3.85521C54.0463 4.17372 54.2557 4.45886 54.5132 4.69424C54.7706 4.92962 55.071 5.11058 55.3971 5.22671C55.7231 5.34284 56.0684 5.39184 56.4131 5.3709Z" fill="#ff4d37"></path><path d="M24.5972 10.66V8.76493H20.7665V27.6296H24.5972V17.7579C24.5972 17.7579 24.5972 17.4651 24.5972 17.0085C24.6898 15.5958 25.6327 12.7015 30.3053 12.7015V8.39453C28.2185 8.52348 26.2231 9.31544 24.5972 10.66Z" fill="#ff4d37"></path></svg>
