<?xml version="1.0" encoding="UTF-8" standalone="no"?>
<!-- Created with Inkscape (http://www.inkscape.org/) -->

<svg
   xmlns:dc="http://purl.org/dc/elements/1.1/"
   xmlns:cc="http://creativecommons.org/ns#"
   xmlns:rdf="http://www.w3.org/1999/02/22-rdf-syntax-ns#"
   xmlns:svg="http://www.w3.org/2000/svg"
   xmlns="http://www.w3.org/2000/svg"
   xmlns:sodipodi="http://sodipodi.sourceforge.net/DTD/sodipodi-0.dtd"
   xmlns:inkscape="http://www.inkscape.org/namespaces/inkscape"
   width="302"
   height="72.292023"
   viewBox="0 0 79.90417 19.127263"
   version="1.1"
   id="svg8"
   inkscape:version="0.92.0 r15299"
   sodipodi:docname="boston dynamics.svg">
  <defs
     id="defs2">
    <style
       id="style10">.cls-1,.cls-3{fill:#2e95c9;}.cls-1,.cls-2{fill-rule:evenodd;}.cls-2,.cls-4{fill:#0b314f;}</style>
  </defs>
  <sodipodi:namedview
     id="base"
     pagecolor="#ffffff"
     bordercolor="#666666"
     borderopacity="1.0"
     inkscape:pageopacity="0.0"
     inkscape:pageshadow="2"
     inkscape:zoom="2.6733334"
     inkscape:cx="151.00001"
     inkscape:cy="36.146022"
     inkscape:document-units="mm"
     inkscape:current-layer="layer1"
     showgrid="false"
     fit-margin-top="0"
     fit-margin-left="0"
     fit-margin-right="0"
     fit-margin-bottom="0"
     units="px"
     inkscape:window-width="1280"
     inkscape:window-height="744"
     inkscape:window-x="-4"
     inkscape:window-y="-4"
     inkscape:window-maximized="1" />
  <metadata
     id="metadata5">
    <rdf:RDF>
      <cc:Work
         rdf:about="">
        <dc:format>image/svg+xml</dc:format>
        <dc:type
           rdf:resource="http://purl.org/dc/dcmitype/StillImage" />
        <dc:title></dc:title>
      </cc:Work>
    </rdf:RDF>
  </metadata>
  <g
     inkscape:label="Layer 1"
     inkscape:groupmode="layer"
     id="layer1"
     transform="translate(309.27202,-213.75097)">
    <g
       id="g70"
       transform="matrix(0.16130179,0,0,0.16130179,-309.74297,212.82837)"
       style="stroke-width:1.64030004">
      <path
         id="path16"
         d="M 425.3,23.91 C 414.14,19.19 397.55,10.56 391.48,7.36 h -11 v 92.47 a 29.73,29.73 0 0 0 7.73,-5.67 c 11.5,-13.35 24.4,-25.34 35.95,-28.14 2.83,-1.86 4.43,1.82 4.43,1.82 A 54.13,54.13 0 0 0 432.48,55 c 1.17,-6.58 1.55,-14.21 2.16,-20.11 C 435.16,29.82 436,26 436,26 c 0,0 -4,0.75 -10.7,-2.09 z M 481.08,7.36 c -1.67,4.39 -5.42,13.81 -6.9,13.91 -0.92,0.07 -4.52,-1.85 -7.61,-5.62 a 53.55,53.55 0 0 1 -5.33,-8.29 h -39.8 c 4.34,1.23 11.56,1.82 20.36,6.64 10.66,5.79 21.83,16.09 28.75,19.66 a 18.9,18.9 0 0 0 6.52,2.12 c 0,0 2.07,-3.86 3.45,-4.68 1.13,-0.68 12.2,3.56 16.13,5.1 V 7.36 Z"
         class="cls-1"
         inkscape:connector-curvature="0"
         style="fill:#2e95c9;fill-rule:evenodd;stroke-width:1.64030004" />
      <path
         id="path18"
         d="m 449.93,97 a 90.15,90.15 0 0 1 -20,-4.1 31.73,31.73 0 0 0 3.21,-3.52 12.93,12.93 0 0 0 1.47,-2.68 l -0.69,-0.69 a 223.67,223.67 0 0 1 -23.59,17.28 225.18,225.18 0 0 1 -29.89,15.11 v 4.26 h 89 c 1.17,-3.94 4.67,-15.36 7.68,-21.31 1.26,-2.5 4.87,-2.94 4.87,-2.94 l -0.14,-1.1 A 277.17,277.17 0 0 1 449.93,97 Z m 36.8,-50.69 c -6,-0.75 -12.82,-2 -12.82,-2 0,0 -5.27,6.69 -10.91,13.27 -6.5,7.59 -13.49,15.21 -13.49,15.21 l 47.14,13.48 V 47 a 97.5,97.5 0 0 1 -9.92,-0.68 z m 9.92,76.35 v -21.6 l -13.08,21.6 z"
         class="cls-2"
         inkscape:connector-curvature="0"
         style="fill:#0b314f;fill-rule:evenodd;stroke-width:1.64030004" />
      <path
         id="path20"
         d="m 4.56,47.1 h 8.5 c 6.52,0 11,2.11 11,7.92 0,4.32 -2.52,6.48 -6.48,7.47 v 0.09 c 4.27,0.36 7.29,3.15 7.29,7.56 0,6.75 -5.58,8.37 -12,8.37 H 4.56 Z m 4.5,13.41 h 2.47 c 4.36,0 8.05,-0.4 8.05,-5 0,-3.73 -3.19,-4.68 -5.8,-4.68 H 9.06 Z m 0,14.31 h 3.37 c 4,0 7.69,-0.85 7.69,-5.08 0,-4.86 -4.27,-5.54 -8.14,-5.54 H 9.06 Z"
         class="cls-3"
         inkscape:connector-curvature="0"
         style="fill:#2e95c9;stroke-width:1.64030004" />
      <path
         id="path22"
         d="m 40.34,55 c 7,0 11.65,5 11.65,12 0,6.57 -4.77,12 -11.65,12 -6.88,0 -11.7,-5.44 -11.7,-12 0,-6.94 4.68,-12 11.7,-12 z m 0,20.61 c 4.95,0 7.15,-4.5 7.15,-8.59 0,-4.36 -2.66,-8.59 -7.15,-8.59 -4.49,0 -7.2,4.23 -7.2,8.59 0,4.11 2.2,8.61 7.2,8.61 z"
         class="cls-3"
         inkscape:connector-curvature="0"
         style="fill:#2e95c9;stroke-width:1.64030004" />
      <path
         id="path24"
         d="m 56.7,74 a 11.29,11.29 0 0 0 5.3,1.63 c 1.94,0 4.32,-0.81 4.32,-3.28 0,-4.19 -9.94,-3.83 -9.94,-10.26 0,-4.77 3.56,-7.06 8.1,-7.06 a 17.66,17.66 0 0 1 5.27,0.9 l -0.36,3.69 a 12.36,12.36 0 0 0 -4.45,-1.17 c -2.16,0 -4,0.9 -4,2.79 0,4.68 9.94,3.33 9.94,10.66 0,4.9 -3.91,7.15 -8,7.15 a 13.19,13.19 0 0 1 -6.3,-1.26 z"
         class="cls-3"
         inkscape:connector-curvature="0"
         style="fill:#2e95c9;stroke-width:1.64030004" />
      <path
         id="path26"
         d="m 89.86,59 h -6.07 v 12.54 c 0,2.65 1.62,4.09 3.55,4.09 a 5.22,5.22 0 0 0 2.88,-0.81 v 3.6 a 13.25,13.25 0 0 1 -3.6,0.63 c -4.37,0 -7.06,-2.07 -7.06,-6.66 V 59 h -5.18 v -3.44 h 5.17 v -5.31 l 4.23,-1.35 v 6.66 h 6.07 z"
         class="cls-3"
         inkscape:connector-curvature="0"
         style="fill:#2e95c9;stroke-width:1.64030004" />
      <path
         id="path28"
         d="m 105.84,55 c 7,0 11.65,5 11.65,12 0,6.57 -4.77,12 -11.65,12 -6.88,0 -11.7,-5.44 -11.7,-12 0,-6.94 4.68,-12 11.7,-12 z m 0,20.61 c 4.95,0 7.15,-4.5 7.15,-8.59 0,-4.36 -2.66,-8.59 -7.15,-8.59 -4.49,0 -7.2,4.23 -7.2,8.59 0,4.11 2.21,8.61 7.2,8.61 z"
         class="cls-3"
         inkscape:connector-curvature="0"
         style="fill:#2e95c9;stroke-width:1.64030004" />
      <path
         id="path30"
         d="M 122.92,55.56 H 127 v 3.65 h 0.09 c 1.26,-2.61 4.32,-4.19 7.51,-4.19 5.94,0 8.59,3.69 8.59,9.85 V 78.51 H 139 V 66.63 c 0,-5.35 -1.17,-8 -4.86,-8.19 -4.82,0 -7,3.87 -7,9.45 v 10.62 h -4.23 z"
         class="cls-3"
         inkscape:connector-curvature="0"
         style="fill:#2e95c9;stroke-width:1.64030004" />
      <path
         id="path32"
         d="m 153.33,47.1 h 9.27 c 9.31,0 16.74,5.76 16.74,15.43 0,10.53 -6.39,16 -16.74,16 h -9.27 z m 4.5,27.45 h 4.72 c 7.74,0 12,-3.73 12,-11.83 0,-7.33 -5,-11.65 -11.47,-11.65 h -5.26 z"
         class="cls-4"
         inkscape:connector-curvature="0"
         style="fill:#0b314f;stroke-width:1.64030004" />
      <path
         id="path34"
         d="m 184.22,84.72 a 6.48,6.48 0 0 0 2,0.36 c 3.78,0 5,-5.22 5,-5.67 a 12.66,12.66 0 0 0 -0.81,-2.43 l -7.78,-21.42 h 4.63 l 6.16,19 h 0.09 l 6.3,-19 h 4.28 L 195.65,79 c -1.58,4.41 -3.24,9.49 -8.82,9.49 a 13.89,13.89 0 0 1 -2.88,-0.31 z"
         class="cls-4"
         inkscape:connector-curvature="0"
         style="fill:#0b314f;stroke-width:1.64030004" />
      <path
         id="path36"
         d="M 208.93,55.56 H 213 v 3.65 h 0.09 c 1.26,-2.61 4.32,-4.19 7.51,-4.19 5.94,0 8.59,3.69 8.59,9.85 V 78.51 H 225 V 66.63 c 0,-5.35 -1.17,-8 -4.86,-8.19 -4.82,0 -7,3.87 -7,9.45 v 10.62 h -4.23 z"
         class="cls-4"
         inkscape:connector-curvature="0"
         style="fill:#0b314f;stroke-width:1.64030004" />
      <path
         id="path38"
         d="M 237.26,57.18 A 14.62,14.62 0 0 1 244.82,55 c 6.57,0 9.22,3.24 9.22,9.49 V 74 a 36,36 0 0 0 0.18,4.5 h -4 v -3 h -0.09 a 8.52,8.52 0 0 1 -7.11,3.51 c -4.95,0 -8.41,-2.16 -8.41,-7.15 0,-5.76 6.3,-7.56 10.66,-7.56 1.67,0 2.83,0 4.5,0.09 0,-4 -1.44,-6 -5.67,-6 a 10.79,10.79 0 0 0 -6.66,2.34 z m 12.55,10.39 c -0.9,0 -1.8,-0.09 -2.7,-0.09 -2.29,0 -8,0.36 -8,4.41 0,2.43 2.34,3.73 4.28,3.73 4.18,0 6.39,-2.61 6.39,-6 z"
         class="cls-4"
         inkscape:connector-curvature="0"
         style="fill:#0b314f;stroke-width:1.64030004" />
      <path
         id="path40"
         d="m 260.65,55.56 h 4 v 3.33 h 0.09 C 266.32,56.24 268.61,55 272,55 a 6.78,6.78 0 0 1 6.52,4.46 8.18,8.18 0 0 1 7.1,-4.46 c 5.85,0 8,3.78 8,8.77 v 14.74 h -4.23 V 64.83 c 0,-2.83 -0.67,-6.39 -4.09,-6.39 -4.32,0 -6,4.23 -6,8.5 V 78.51 H 275 V 64.83 c 0,-2.83 -0.67,-6.39 -4.09,-6.39 -4.32,0 -6,4.23 -6,8.5 v 11.57 h -4.23 z"
         class="cls-4"
         inkscape:connector-curvature="0"
         style="fill:#0b314f;stroke-width:1.64030004" />
      <path
         id="path42"
         d="m 305.49,50.43 h -4.77 v -4.77 h 4.77 z M 301,55.56 h 4.23 V 78.51 H 301 Z"
         class="cls-4"
         inkscape:connector-curvature="0"
         style="fill:#0b314f;stroke-width:1.64030004" />
      <path
         id="path44"
         d="m 327.29,59.43 a 12.25,12.25 0 0 0 -4.59,-1 c -4.73,0 -7.38,4.23 -7.38,8.59 0,4.09 2.21,8.59 7.65,8.59 a 8.83,8.83 0 0 0 4.54,-1.31 l 0.32,3.78 a 12.91,12.91 0 0 1 -5.31,0.94 c -6.93,0 -11.7,-5.44 -11.7,-12 0,-7 4.68,-12 11.7,-12 a 15.83,15.83 0 0 1 5.13,0.9 z"
         class="cls-4"
         inkscape:connector-curvature="0"
         style="fill:#0b314f;stroke-width:1.64030004" />
      <path
         id="path46"
         d="m 333,74 a 11.29,11.29 0 0 0 5.26,1.62 c 1.94,0 4.32,-0.81 4.32,-3.28 0,-4.19 -9.94,-3.83 -9.94,-10.26 0,-4.77 3.55,-7.06 8.1,-7.06 a 17.66,17.66 0 0 1 5.26,0.9 l -0.36,3.69 a 12.35,12.35 0 0 0 -4.45,-1.17 c -2.16,0 -4.05,0.9 -4.05,2.79 0,4.68 9.95,3.33 9.95,10.66 0,4.9 -3.92,7.15 -8,7.15 a 13.19,13.19 0 0 1 -6.3,-1.26 z"
         class="cls-4"
         inkscape:connector-curvature="0"
         style="fill:#0b314f;stroke-width:1.64030004" />
    </g>
  </g>
</svg>
