<?xml version="1.0" encoding="UTF-8"?>
<svg id="CMU" xmlns="http://www.w3.org/2000/svg" version="1.1" viewBox="0 0 38.1 12.5">
  <!-- Generator: Adobe Illustrator 29.4.0, SVG Export Plug-In . SVG Version: 2.1.0 Build 37)  -->
  <defs>
    <style>
      .st0 {
        fill: #c41230;
      }
    </style>
  </defs>
  <path class="st0" d="M9.5.4h-.4c0,.4-.2.5-.6.5-.7,0-1.8-.9-3-.9C2.1,0,0,3.4,0,6.4s2,6,5.4,6,2.8-1,3.3-1,.4.3.4.7h.5v-4.2h-.5v.6c-.3,1.4-1.4,3.4-3.6,3.4s-2.7-1.7-2.7-5.8S3.9.5,5.6.5s3.3,2.2,3.5,3.9h.4V.4Z"/>
  <path class="st0" d="M9.5.4h-.4c0,.4-.2.5-.6.5-.7,0-1.8-.9-3-.9C2.1,0,0,3.4,0,6.4s2,6,5.4,6,2.8-1,3.3-1,.4.3.4.7h.5v-4.2h-.5v.6c-.3,1.4-1.4,3.4-3.6,3.4s-2.7-1.7-2.7-5.8S3.9.5,5.6.5s3.3,2.2,3.5,3.9h.4V.4Z"/>
  <path class="st0" d="M24,.9v-.5s-3.8,0-3.8,0l-2.8,7.9L14.7.4h-4.2v.5h1.1v9.5c0,.7-.2,1.3-1.1,1.3v.5h2.9v-.5h0c-.9,0-1.3,0-1.3-1.4V.8h0l4,11.4h.5l3.9-11.2h0v10.7h-1.1v.5h4.6v-.5h-1.1V.9h1.1Z"/>
  <path class="st0" d="M24.8.9h1.2v7.4c0,2.6,1.8,4.2,4.5,4.2s4.4-1.6,4.4-4.1V2.1c0-1,.3-1.2.9-1.2h.3v-.4h-2.9v.4h.2c.9,0,1,.3,1,1.2v6.4c0,2.3-1.4,3.3-2.8,3.3-2.4,0-2.9-1.6-3.1-3.8V.9h1.1v-.4h-4.7v.4Z"/>
  <path class="st0" d="M37.2,1.1h-.1v-.5h-.2c0,0,.5,0,.5,0h0c0,0-.2,0-.2,0v.5ZM37.7,1.1l-.2-.5h0,0v.5h-.1V.5h.2l.2.5.2-.5h.2v.6h-.1v-.4h0c0-.1,0-.1,0-.1l-.2.5h0Z"/>
</svg>