<svg width="1269" height="661" viewBox="0 0 1269 661" fill="none" xmlns="http://www.w3.org/2000/svg">
<path d="M769.442 964.523L769.432 964.516C718.939 933.764 661.471 927.06 597.07 944.364C543.249 958.825 504.275 984.744 480.216 1022.15L480.637 1022.42L480.216 1022.15C457.264 1057.96 443.094 1096.73 437.711 1138.47C369.802 1115.31 304.775 1081.35 245.297 1036.6C264.18 974.171 293.059 920.203 331.927 874.691C381.276 817.301 452.43 776.099 545.432 751.11C613.507 732.819 677.672 726.878 737.931 733.274C798.444 740.63 853.493 760.232 903.084 792.077C952.93 824.882 996.851 870.067 1034.84 927.647C1054.93 958.386 1072.88 992.817 1088.71 1030.94C1024.23 1080.7 953.05 1117.64 878.639 1141.75L876.048 1132.06C854.757 1052.38 819.239 996.501 769.442 964.523ZM1323.75 252.433C1282.01 257.816 1243.24 271.986 1207.43 294.938L1207.7 295.359L1207.43 294.938C1170.02 318.997 1144.1 357.971 1129.64 411.792C1112.34 476.193 1119.04 533.661 1149.79 584.154L1149.8 584.164C1181.78 633.961 1237.66 669.479 1317.33 690.77L1327.03 693.361C1302.92 767.772 1265.98 838.948 1216.22 903.429C1178.09 887.604 1143.66 869.648 1112.92 849.565C1055.34 811.573 1010.16 767.652 977.355 717.806C945.51 668.215 925.908 613.166 918.552 552.653C912.156 492.393 918.097 428.229 936.388 360.154C961.377 267.152 1002.58 195.998 1059.97 146.649C1105.48 107.781 1159.45 78.9023 1221.88 60.0188C1266.63 119.497 1300.58 184.524 1323.75 252.433ZM449.705 -183.966L452.296 -174.268C473.587 -94.5896 509.105 -38.7133 558.902 -6.73491L558.912 -6.72871C609.405 24.0232 666.873 30.7278 731.274 13.424C785.095 -1.03725 824.069 -26.9561 848.128 -64.3664L848.128 -64.367C871.08 -100.171 885.249 -138.944 890.633 -180.681C958.542 -157.517 1023.57 -123.562 1083.05 -78.8153C1064.16 -16.3827 1035.29 37.5855 996.416 83.0977C947.068 140.487 875.914 181.689 782.911 206.678C714.837 224.969 650.672 230.91 590.413 224.513C529.901 217.158 474.853 197.557 425.263 165.712C375.416 132.908 331.494 87.7226 293.503 30.1427C273.418 -0.596283 255.463 -35.0279 239.637 -73.154C304.118 -122.913 375.294 -159.851 449.705 -183.966ZM4.59688 705.355C46.3341 699.971 85.1072 685.802 120.911 662.85L120.912 662.85C158.322 638.791 184.241 599.817 198.702 545.996C216.006 481.595 209.301 424.127 178.55 373.634L178.543 373.624C146.565 323.826 90.6886 288.309 11.01 267.018L1.31171 264.426C25.4268 190.016 62.3651 118.84 112.124 54.3587C150.25 70.1845 184.682 88.1401 215.421 108.224C273.001 146.216 318.186 190.137 350.99 239.985C382.835 289.575 402.436 344.622 409.791 405.135C416.188 465.394 410.247 529.559 391.956 597.633C366.967 690.636 325.765 761.789 268.376 811.138C222.864 850.007 168.895 878.885 106.462 897.769C61.7148 838.291 27.7605 773.263 4.59688 705.355ZM742.318 400.748C785.478 443.908 785.478 513.884 742.318 557.044C699.158 600.204 629.182 600.204 586.022 557.044C542.862 513.884 542.862 443.908 586.022 400.748C629.182 357.588 699.158 357.588 742.318 400.748Z" stroke="#2A2A2D"/>
</svg>
