<svg width="13" height="12" viewBox="0 0 13 12" fill="none" xmlns="http://www.w3.org/2000/svg">
<path d="M7.30032 8.29586C6.75475 8.23794 6.17394 8.29174 5.55788 8.45727C4.71622 8.68342 4.07189 9.0564 3.6249 9.57623C3.27234 9.98905 3.0106 10.4787 2.83969 11.0451C3.38015 11.4521 3.97131 11.7606 4.58871 11.9706C4.63677 11.5917 4.7649 11.2399 4.97311 10.9151C5.18992 10.578 5.54128 10.3442 6.02718 10.2136C6.60854 10.0574 7.12692 10.118 7.58232 10.3953C8.03137 10.6837 8.35208 11.1878 8.54443 11.9077L8.5691 12C9.24517 11.7815 9.89182 11.446 10.4774 10.9936C10.3338 10.6473 10.1709 10.3347 9.98855 10.0556C9.6447 9.53443 9.24709 9.12534 8.79573 8.8283C8.34668 8.53994 7.84821 8.36246 7.30032 8.29586Z" fill="#FF572D"/>
<path d="M12.6328 7.93628C12.4143 8.61235 12.0788 9.25901 11.6264 9.84456C11.2802 9.70103 10.9675 9.53809 10.6884 9.35574C10.1672 9.01189 9.75815 8.61428 9.46112 8.16291C9.17275 7.71386 8.99527 7.21539 8.92868 6.66751C8.87076 6.12194 8.92456 5.54112 9.09009 4.92506C9.31623 4.0834 9.68922 3.43908 10.209 2.99209C10.6219 2.63952 11.1115 2.37779 11.6779 2.20688C12.0849 2.74734 12.3934 3.3385 12.6034 3.9559C12.2245 4.00396 11.8727 4.13209 11.5479 4.34029C11.2108 4.5571 10.977 4.90846 10.8464 5.39437C10.6902 5.97572 10.7508 6.4941 11.0281 6.94951C11.3165 7.39856 11.8206 7.71926 12.5405 7.91162L12.6328 7.93628Z" fill="#FF572D"/>
<path d="M8.67691 0.029414C9.29431 0.2394 9.88547 0.5479 10.4259 0.95493C10.255 1.52133 9.99328 2.01094 9.64072 2.42376C9.19373 2.94359 8.5494 3.31657 7.70774 3.54272C7.09168 3.70825 6.51087 3.76205 5.9653 3.70413C5.41741 3.63754 4.91894 3.46006 4.46989 3.17169C4.01853 2.87465 3.62092 2.46556 3.27707 1.94442C3.09472 1.66533 2.93178 1.35265 2.78825 1.00638C3.3738 0.554005 4.02045 0.218537 4.69653 0L4.72119 0.0922996C4.91355 0.812175 5.23425 1.3163 5.6833 1.60466C6.13871 1.88202 6.65709 1.9426 7.23844 1.7864C7.72435 1.65584 8.07571 1.42199 8.29252 1.08486C8.50072 0.760075 8.62885 0.40826 8.67691 0.029414Z" fill="#FF572D"/>
<path d="M0.632812 4.06371C0.851351 3.38764 1.18682 2.74099 1.63919 2.15543C1.98546 2.29896 2.29815 2.4619 2.57724 2.64425C3.09838 2.98811 3.50747 3.38571 3.80451 3.83708C4.09287 4.28613 4.27035 4.7846 4.33695 5.33248C4.39487 5.87805 4.34106 6.45887 4.17553 7.07493C3.94939 7.91659 3.5764 8.56091 3.05658 9.00791C2.64376 9.36047 2.15415 9.6222 1.58774 9.79312C1.18071 9.25266 0.872209 8.66149 0.662224 8.0441C1.04107 7.99604 1.39289 7.8679 1.71768 7.6597C2.05481 7.44289 2.28865 7.09153 2.41921 6.60562C2.57541 6.02427 2.51484 5.50589 2.23748 5.05048C1.94911 4.60144 1.44499 4.28073 0.725115 4.08838L0.632812 4.06371Z" fill="#FF572D"/>
<path d="M7.34269 5.29013C7.73475 5.68219 7.73475 6.31784 7.34269 6.7099C6.95063 7.10196 6.31498 7.10196 5.92292 6.7099C5.53086 6.31784 5.53086 5.68219 5.92292 5.29013C6.31498 4.89807 6.95063 4.89807 7.34269 5.29013Z" fill="#FF572D"/>
</svg>
