<?xml version="1.0" encoding="UTF-8"?>
<svg id="Layer_1" data-name="Layer 1" xmlns="http://www.w3.org/2000/svg" viewBox="0 0 284.12 70.45">
  <defs>
    <style>
      .cls-1 {
        fill: #f7500f;
      }

      .cls-2 {
        fill: #fff;
      }
    </style>
  </defs>
  <g>
    <polygon class="cls-2" points="79.87 62.26 88.89 62.26 88.89 40.48 107.63 40.48 107.63 31.91 88.89 31.91 88.89 17.6 111.21 17.6 111.21 8.81 79.87 8.81 79.87 62.26"/>
    <path class="cls-2" d="M120.34,8.81c-2.9,0-5.18,2.34-5.18,5.33s2.28,5.4,5.18,5.4,5.04-2.42,5.04-5.4-2.17-5.33-5.04-5.33Z"/>
    <rect class="cls-2" x="116.12" y="26.72" width="8.45" height="35.56"/>
    <path class="cls-2" d="M155.67,49.6c-.94,3.33-3.91,5.16-8.37,5.16-5.4,0-8.46-3.09-9.1-9.18l25.07-.07h.1v-2.75c0-5.41-1.57-10-4.54-13.26-2.95-3.24-7.08-4.95-11.94-4.95s-9.05,1.88-12.08,5.31c-3.01,3.41-4.67,8.22-4.67,13.55,0,11.01,7,18.71,17.02,18.71,8.79,0,14.9-4.66,16.34-12.47l.02-.12h-7.84l-.02.07ZM155,39.8h-16.57c.83-5.16,3.78-7.89,8.55-7.89s7.99,3.09,8.03,7.89Z"/>
    <rect class="cls-2" x="167.83" y="8.82" width="8.38" height="53.46"/>
    <path class="cls-2" d="M207.58,30.98c-2.16-3.35-6.16-5.34-10.8-5.34-4.9,0-9.03,1.86-11.95,5.37-2.83,3.41-4.33,8.12-4.33,13.62s1.47,10.08,4.24,13.41c2.82,3.37,6.81,5.16,11.55,5.16h0c5.07,0,9.29-2.32,11.36-6.2l.52,5.27h7.77V8.81h-8.38v22.17ZM207.52,44.35c0,6.36-3.77,10.64-9.38,10.64s-9.18-4.18-9.18-10.64,3.69-10.71,9.18-10.71,9.38,4.3,9.38,10.71Z"/>
    <path class="cls-2" d="M247.82,8.81h-9.16l-18.22,53.34-.04.13h9.38l4.06-12.31h18.67l4.06,12.31h9.51l-18.24-53.4-.02-.07ZM242.37,26.2l.03-.07c.43-1.28.77-2.61.98-3.54.19,1.01.57,2.29.94,3.54l5.69,16.92h-13.26l5.6-16.86Z"/>
    <rect class="cls-2" x="270.67" y="8.81" width="8.73" height="53.47"/>
  </g>
  <g>
    <path class="cls-1" d="M59.47,32.27c-1.3-3.34-2.64-6.79-4.21-10.03-.24-.49-.46-.99-.71-1.48-.29-.57-.6-1.14-1.01-1.64-.53-.64-1.37-1.09-2.2-.76-.75.3-1.21,1.05-1.59,1.72s-.74,1.4-1.06,2.12c-.52,1.15-1.08,2.28-1.55,3.45-1.09,2.66-2.16,5.32-3.21,8-1.01,2.56-2,5.13-3.09,7.65-1.09,2.54-2.28,5.04-3.62,7.45l-.11.19c-.65,1.17-1.32,2.38-2.17,3.53-2.35,3.2-5.27,4.58-8.22,3.89-2.81-.66-4.54-2.86-5.86-4.92-.53-.82-1.01-1.67-1.47-2.48-.65-1.14-1.35-2.25-2.03-3.37-.78-1.28-1.58-2.57-2.71-3.58-.25-.23-.53-.43-.84-.55-1.34-.52-2.47.35-3.28,1.26-1.63,1.84-2.82,4.02-4.1,6.1,0,.01-1.57,2.54-1.57,2.54l-.14.22v10.78c0,2.29,1.86,4.15,4.15,4.15h54.34c2.29,0,4.15-1.86,4.15-4.15v-10.54l-5.24-12.99c-1.37-3.3-2.41-5.96-2.65-6.59Z"/>
    <path class="cls-1" d="M8.87,3.9c-2.29,0-4.15,1.86-4.15,4.15v35.2c.19-.3.39-.59.59-.89.8-1.17,1.53-2.09,2.28-2.88,1.82-1.92,4.29-3.3,6.98-2.47,1.57.48,2.85,1.61,3.94,2.84,1.93,2.16,3.44,4.68,4.87,7.19.99,1.75,2.67,4.68,4.85,4.68s3.92-2.75,5.03-4.74c2.7-4.84,4.5-9.8,6.51-14.96,1.43-3.68,2.91-7.49,4.66-11.16.8-1.68,1.68-3.35,2.87-4.8,1.11-1.35,2.6-2.59,4.5-2.67,1.49-.06,2.77.52,3.85,1.55,1.29,1.23,2.3,2.79,3.12,4.36.85,1.64,1.62,3.32,2.35,5.01.28.64.55,1.28.81,1.93.27.64.53,1.29.79,1.93.26.64.51,1.28.76,1.92.25.64.5,1.27.75,1.91.63,1.61,1.33,3.34,2.05,5.05l1.08,2.67V8.05c0-2.29-1.86-4.15-4.15-4.15H8.87Z"/>
  </g>
</svg>