<svg width="1600" height="900" viewBox="0 0 1600 900" fill="none" xmlns="http://www.w3.org/2000/svg">
  <rect width="1600" height="900" fill="#071118"/>
  <rect x="90" y="90" width="1420" height="720" rx="34" fill="url(#panel)" stroke="#C2CCD6" stroke-opacity="0.24"/>
  <g opacity="0.24">
    <path d="M90 170H1510" stroke="#87D7FF"/>
    <path d="M90 250H1510" stroke="#87D7FF"/>
    <path d="M90 330H1510" stroke="#87D7FF"/>
    <path d="M90 410H1510" stroke="#87D7FF"/>
    <path d="M90 490H1510" stroke="#87D7FF"/>
    <path d="M90 570H1510" stroke="#87D7FF"/>
    <path d="M90 650H1510" stroke="#87D7FF"/>
    <path d="M90 730H1510" stroke="#87D7FF"/>
    <path d="M210 90V810" stroke="#87D7FF"/>
    <path d="M390 90V810" stroke="#87D7FF"/>
    <path d="M570 90V810" stroke="#87D7FF"/>
    <path d="M750 90V810" stroke="#87D7FF"/>
    <path d="M930 90V810" stroke="#87D7FF"/>
    <path d="M1110 90V810" stroke="#87D7FF"/>
    <path d="M1290 90V810" stroke="#87D7FF"/>
  </g>
  <circle cx="435" cy="430" r="170" fill="url(#glow)"/>
  <circle cx="1140" cy="300" r="10" fill="#87D7FF"/>
  <circle cx="1178" cy="300" r="10" fill="#B8C6D4"/>
  <circle cx="1216" cy="300" r="10" fill="#B8C6D4"/>
  <rect x="920" y="356" width="360" height="228" rx="28" fill="#0C1821" fill-opacity="0.82" stroke="#C2CCD6" stroke-opacity="0.22"/>
  <rect x="960" y="402" width="178" height="12" rx="6" fill="#87D7FF"/>
  <rect x="960" y="438" width="240" height="18" rx="9" fill="#EAF6FF"/>
  <rect x="960" y="482" width="226" height="12" rx="6" fill="#ADC2D4"/>
  <rect x="960" y="512" width="188" height="12" rx="6" fill="#7991A5"/>
  <circle cx="348" cy="590" r="82" stroke="#87D7FF" stroke-opacity="0.36" stroke-width="2"/>
  <circle cx="348" cy="590" r="118" stroke="#87D7FF" stroke-opacity="0.18" stroke-width="2"/>
  <defs>
    <linearGradient id="panel" x1="163.5" y1="154.5" x2="1434" y2="780" gradientUnits="userSpaceOnUse">
      <stop stop-color="#0D1A24"/>
      <stop offset="1" stop-color="#09131B"/>
    </linearGradient>
    <radialGradient id="glow" cx="0" cy="0" r="1" gradientUnits="userSpaceOnUse" gradientTransform="translate(435 430) rotate(90) scale(170)">
      <stop stop-color="#87D7FF" stop-opacity="0.52"/>
      <stop offset="1" stop-color="#87D7FF" stop-opacity="0"/>
    </radialGradient>
  </defs>
</svg>
